<svg width="30" height="30" viewBox="0 0 30 30" fill="none" xmlns="http://www.w3.org/2000/svg">
<rect width="30" height="30" rx="6" fill="#881DED"/>
<path d="M20.0001 6.66675V10.0001M20.0001 10.0001V13.3334M20.0001 10.0001H16.6667M20.0001 10.0001H23.3334M8.33341 13.3334H11.6667C12.5872 13.3334 13.3334 12.5872 13.3334 11.6667V8.33341C13.3334 7.41294 12.5872 6.66675 11.6667 6.66675H8.33341C7.41294 6.66675 6.66675 7.41294 6.66675 8.33341V11.6667C6.66675 12.5872 7.41294 13.3334 8.33341 13.3334ZM13.3334 20.0001C13.3334 21.841 11.841 23.3334 10.0001 23.3334C8.15913 23.3334 6.66675 21.841 6.66675 20.0001C6.66675 18.1591 8.15913 16.6667 10.0001 16.6667C11.841 16.6667 13.3334 18.1591 13.3334 20.0001ZM18.3334 23.3334H21.6667C22.5872 23.3334 23.3334 22.5872 23.3334 21.6667V18.3334C23.3334 17.4129 22.5872 16.6667 21.6667 16.6667H18.3334C17.4129 16.6667 16.6667 17.4129 16.6667 18.3334V21.6667C16.6667 22.5872 17.4129 23.3334 18.3334 23.3334Z" stroke="white" stroke-width="1.3" stroke-linecap="round"/>
</svg>
