# 3ds Max Wavefront OBJ Exporter v0.97b - (c)2007 guruware
# File Created: 24.09.2020 15:11:34

mtllib Eye.mtl

#
# object Eyeball
#

v  0.0000 12.1722 64.4271
v  0.0000 16.5956 62.5300
v  -4.2954 16.0299 62.5300
v  -3.1504 11.7574 64.4271
v  -8.2977 14.3721 62.5300
v  -6.0861 10.5415 64.4271
v  -11.7348 11.7348 62.5300
v  -8.6070 8.6070 64.4271
v  -14.3721 8.2977 62.5300
v  -10.5415 6.0861 64.4274
v  -16.0302 4.2951 62.5300
v  -11.7574 3.1504 64.4274
v  -16.5956 0.0000 62.5300
v  -12.1722 0.0000 64.4274
v  -16.0302 -4.2951 62.5300
v  -11.7574 -3.1504 64.4274
v  -14.3721 -8.2977 62.5300
v  -10.5415 -6.0861 64.4274
v  -11.7348 -11.7348 62.5300
v  -8.6070 -8.6070 64.4274
v  -8.2977 -14.3721 62.5300
v  -6.0861 -10.5415 64.4274
v  -4.2954 -16.0299 62.5300
v  -3.1504 -11.7574 64.4274
v  0.0000 -16.5956 62.5300
v  0.0000 -12.1722 64.4274
v  4.2951 -16.0302 62.5300
v  3.1504 -11.7574 64.4274
v  8.2977 -14.3721 62.5300
v  6.0861 -10.5415 64.4274
v  11.7348 -11.7348 62.5300
v  8.6070 -8.6070 64.4274
v  14.3721 -8.2977 62.5300
v  10.5413 -6.0861 64.4274
v  16.0299 -4.2954 62.5300
v  11.7574 -3.1504 64.4274
v  16.5956 0.0000 62.5300
v  12.1722 0.0000 64.4274
v  16.0299 4.2951 62.5300
v  11.7574 3.1504 64.4274
v  14.3721 8.2977 62.5300
v  10.5415 6.0861 64.4274
v  11.7348 11.7348 62.5300
v  8.6070 8.6070 64.4271
v  8.2977 14.3721 62.5300
v  6.0861 10.5415 64.4271
v  4.2951 16.0299 62.5300
v  3.1504 11.7574 64.4271
v  0.0000 24.3616 57.1579
v  -6.3053 23.5316 57.1579
v  -5.2702 19.6682 60.2132
v  0.0000 20.3622 60.2132
v  -12.1808 21.0977 57.1579
v  -10.1811 17.6342 60.2132
v  -17.2263 17.2263 57.1579
v  -14.3982 14.3982 60.2132
v  -21.0977 12.1808 57.1579
v  -17.6342 10.1811 60.2132
v  -23.5316 6.3053 57.1579
v  -19.6685 5.2700 60.2132
v  -24.3616 0.0000 57.1579
v  -20.3622 0.0000 60.2132
v  -23.5316 -6.3053 57.1579
v  -19.6685 -5.2702 60.2132
v  -21.0977 -12.1808 57.1579
v  -17.6342 -10.1811 60.2132
v  -17.2263 -17.2263 57.1579
v  -14.3982 -14.3982 60.2132
v  -12.1808 -21.0977 57.1579
v  -10.1811 -17.6342 60.2132
v  -6.3053 -23.5316 57.1579
v  -5.2702 -19.6685 60.2132
v  0.0000 -24.3616 57.1579
v  0.0000 -20.3622 60.2132
v  6.3053 -23.5316 57.1579
v  5.2700 -19.6685 60.2132
v  12.1808 -21.0977 57.1579
v  10.1811 -17.6342 60.2132
v  17.2263 -17.2263 57.1579
v  14.3982 -14.3982 60.2132
v  21.0977 -12.1808 57.1579
v  17.6342 -10.1811 60.2132
v  23.5316 -6.3053 57.1579
v  19.6682 -5.2702 60.2132
v  24.3616 0.0000 57.1579
v  20.3622 0.0000 60.2132
v  23.5316 6.3053 57.1579
v  19.6682 5.2700 60.2132
v  21.0977 12.1808 57.1579
v  17.6342 10.1811 60.2132
v  17.2263 17.2263 57.1579
v  14.3982 14.3982 60.2132
v  12.1808 21.0977 57.1579
v  10.1811 17.6342 60.2132
v  6.3053 23.5316 57.1579
v  5.2700 19.6682 60.2132
v  0.0000 37.2867 49.0642
v  -9.6505 36.0162 49.0642
v  -8.1168 30.2920 53.0934
v  0.0000 31.3606 53.0934
v  -18.6433 32.2913 49.0642
v  -15.6804 27.1592 53.0934
v  -26.3657 26.3657 49.0642
v  -22.1755 22.1755 53.0934
v  -32.2913 18.6433 49.0642
v  -27.1592 15.6804 53.0934
v  -36.0164 9.6505 49.0642
v  -30.2923 8.1168 53.0934
v  -37.2869 0.0000 49.0642
v  -31.3609 0.0000 53.0934
v  -36.0164 -9.6505 49.0642
v  -30.2923 -8.1168 53.0934
v  -32.2913 -18.6433 49.0642
v  -27.1592 -15.6804 53.0934
v  -26.3657 -26.3657 49.0642
v  -22.1755 -22.1755 53.0934
v  -18.6433 -32.2913 49.0642
v  -15.6804 -27.1592 53.0934
v  -9.6505 -36.0164 49.0642
v  -8.1168 -30.2920 53.0934
v  0.0000 -37.2869 49.0642
v  0.0000 -31.3609 53.0934
v  9.6505 -36.0164 49.0642
v  8.1168 -30.2923 53.0934
v  18.6433 -32.2913 49.0642
v  15.6804 -27.1592 53.0934
v  26.3657 -26.3657 49.0642
v  22.1752 -22.1755 53.0934
v  32.2913 -18.6433 49.0642
v  27.1592 -15.6804 53.0934
v  36.0162 -9.6505 49.0642
v  30.2920 -8.1168 53.0934
v  37.2867 0.0000 49.0642
v  31.3606 0.0000 53.0934
v  36.0162 9.6505 49.0642
v  30.2920 8.1168 53.0934
v  32.2913 18.6433 49.0642
v  27.1592 15.6804 53.0934
v  26.3657 26.3657 49.0642
v  22.1755 22.1752 53.0934
v  18.6433 32.2913 49.0642
v  15.6804 27.1592 53.0934
v  9.6505 36.0162 49.0642
v  8.1168 30.2920 53.0934
v  -13.6980 51.1213 31.2514
v  -11.7203 43.7403 41.9158
v  0.0000 45.2834 41.9158
v  0.0000 52.9247 31.2514
v  -26.4625 45.8343 31.2514
v  -22.6418 39.2166 41.9158
v  -37.4236 37.4236 31.2514
v  -32.0203 32.0200 41.9158
v  -45.8343 26.4625 31.2514
v  -39.2166 22.6416 41.9158
v  -51.1216 13.6980 31.2514
v  -43.7403 11.7201 41.9158
v  -52.9250 0.0000 31.2514
v  -45.2834 0.0000 41.9158
v  -51.1216 -13.6980 31.2514
v  -43.7403 -11.7203 41.9158
v  -45.8343 -26.4625 31.2514
v  -39.2166 -22.6416 41.9158
v  -37.4236 -37.4236 31.2514
v  -32.0203 -32.0203 41.9158
v  -26.4625 -45.8343 31.2514
v  -22.6418 -39.2166 41.9158
v  -13.6980 -51.1216 31.2514
v  -11.7203 -43.7403 41.9158
v  0.0000 -52.9250 31.2514
v  0.0000 -45.2834 41.9158
v  13.6980 -51.1216 31.2514
v  11.7201 -43.7403 41.9158
v  26.4625 -45.8343 31.2514
v  22.6416 -39.2166 41.9158
v  37.4233 -37.4236 31.2514
v  32.0200 -32.0203 41.9158
v  45.8343 -26.4625 31.2514
v  39.2166 -22.6418 41.9158
v  51.1213 -13.6980 31.2514
v  43.7403 -11.7203 41.9158
v  52.9247 0.0000 31.2514
v  45.2834 0.0000 41.9158
v  51.1216 13.6980 31.2514
v  43.7403 11.7201 41.9158
v  45.8343 26.4622 31.2514
v  39.2166 22.6416 41.9158
v  37.4236 37.4233 31.2514
v  32.0203 32.0200 41.9158
v  26.4625 45.8343 31.2514
v  22.6416 39.2166 41.9158
v  13.6980 51.1213 31.2514
v  11.7203 43.7403 41.9158
v  -15.2781 57.0184 16.5123
v  0.0000 59.0299 16.5123
v  -29.5151 51.1213 16.5123
v  -41.7406 41.7406 16.5123
v  -51.1216 29.5151 16.5123
v  -57.0187 15.2781 16.5123
v  -59.0301 0.0000 16.5123
v  -57.0187 -15.2781 16.5123
v  -51.1216 -29.5151 16.5123
v  -41.7406 -41.7406 16.5123
v  -29.5151 -51.1216 16.5123
v  -15.2781 -57.0187 16.5123
v  0.0000 -59.0301 16.5123
v  15.2781 -57.0187 16.5123
v  29.5148 -51.1216 16.5123
v  41.7403 -41.7406 16.5123
v  51.1213 -29.5151 16.5123
v  57.0184 -15.2781 16.5123
v  59.0299 0.0000 16.5123
v  57.0184 15.2781 16.5123
v  51.1216 29.5148 16.5123
v  41.7406 41.7403 16.5123
v  29.5151 51.1213 16.5123
v  15.2781 57.0184 16.5123
v  -15.8171 59.0299 0.6952
v  0.0000 61.1124 0.6952
v  -30.5562 52.9247 0.6952
v  -43.2130 43.2130 0.6952
v  -52.9250 30.5562 0.6952
v  -59.0301 15.8171 0.6952
v  -61.1124 0.0000 0.6952
v  -59.0301 -15.8171 0.6952
v  -52.9250 -30.5562 0.6952
v  -43.2130 -43.2130 0.6952
v  -30.5562 -52.9250 0.6952
v  -15.8171 -59.0301 0.6952
v  0.0000 -61.1124 0.6952
v  15.8171 -59.0301 0.6952
v  30.5562 -52.9250 0.6952
v  43.2128 -43.2130 0.6952
v  52.9247 -30.5562 0.6952
v  59.0299 -15.8171 0.6952
v  61.1124 0.0000 0.6952
v  59.0299 15.8171 0.6952
v  52.9247 30.5562 0.6952
v  43.2130 43.2128 0.6952
v  30.5562 52.9247 0.6952
v  15.8171 59.0299 0.6952
v  -15.2781 57.0184 -15.1219
v  0.0000 59.0299 -15.1219
v  -29.5151 51.1213 -15.1219
v  -41.7406 41.7406 -15.1219
v  -51.1216 29.5151 -15.1219
v  -57.0187 15.2781 -15.1219
v  -59.0301 0.0000 -15.1219
v  -57.0187 -15.2781 -15.1219
v  -51.1216 -29.5151 -15.1219
v  -41.7406 -41.7406 -15.1219
v  -29.5151 -51.1216 -15.1219
v  -15.2781 -57.0187 -15.1219
v  0.0000 -59.0301 -15.1219
v  15.2781 -57.0187 -15.1219
v  29.5151 -51.1216 -15.1219
v  41.7403 -41.7406 -15.1219
v  51.1213 -29.5151 -15.1219
v  57.0184 -15.2781 -15.1219
v  59.0299 0.0000 -15.1219
v  57.0187 15.2781 -15.1219
v  51.1216 29.5148 -15.1219
v  41.7406 41.7403 -15.1219
v  29.5151 51.1213 -15.1219
v  15.2781 57.0184 -15.1219
v  -13.6980 51.1216 -29.8610
v  0.0000 52.9247 -29.8610
v  -26.4625 45.8343 -29.8610
v  -37.4236 37.4236 -29.8610
v  -45.8343 26.4625 -29.8610
v  -51.1216 13.6980 -29.8610
v  -52.9250 0.0000 -29.8610
v  -51.1216 -13.6980 -29.8610
v  -45.8343 -26.4625 -29.8610
v  -37.4236 -37.4236 -29.8610
v  -26.4625 -45.8343 -29.8610
v  -13.6980 -51.1216 -29.8610
v  0.0000 -52.9250 -29.8610
v  13.6980 -51.1216 -29.8610
v  26.4625 -45.8343 -29.8610
v  37.4233 -37.4236 -29.8610
v  45.8343 -26.4625 -29.8610
v  51.1213 -13.6980 -29.8610
v  52.9247 0.0000 -29.8610
v  51.1216 13.6980 -29.8610
v  45.8343 26.4625 -29.8610
v  37.4236 37.4233 -29.8610
v  26.4625 45.8343 -29.8610
v  13.6980 51.1213 -29.8610
v  -11.1844 41.7406 -42.5176
v  0.0000 43.2130 -42.5176
v  -21.6065 37.4236 -42.5176
v  -30.5562 30.5562 -42.5176
v  -37.4236 21.6065 -42.5176
v  -41.7406 11.1844 -42.5176
v  -43.2130 0.0000 -42.5176
v  -41.7406 -11.1844 -42.5176
v  -37.4236 -21.6065 -42.5176
v  -30.5562 -30.5562 -42.5176
v  -21.6065 -37.4236 -42.5176
v  -11.1844 -41.7406 -42.5176
v  0.0000 -43.2130 -42.5176
v  11.1844 -41.7406 -42.5176
v  21.6065 -37.4236 -42.5176
v  30.5562 -30.5562 -42.5176
v  37.4236 -21.6065 -42.5176
v  41.7406 -11.1844 -42.5176
v  43.2130 0.0000 -42.5176
v  41.7406 11.1844 -42.5176
v  37.4236 21.6065 -42.5176
v  30.5562 30.5562 -42.5176
v  21.6065 37.4236 -42.5176
v  11.1844 41.7406 -42.5176
v  -7.9085 29.5151 -52.2295
v  0.0000 30.5562 -52.2295
v  -15.2781 26.4625 -52.2295
v  -21.6065 21.6065 -52.2295
v  -26.4625 15.2781 -52.2295
v  -29.5151 7.9085 -52.2295
v  -30.5562 0.0000 -52.2295
v  -29.5151 -7.9085 -52.2295
v  -26.4625 -15.2781 -52.2295
v  -21.6065 -21.6065 -52.2295
v  -15.2781 -26.4625 -52.2295
v  -7.9085 -29.5151 -52.2295
v  0.0000 -30.5562 -52.2295
v  7.9085 -29.5151 -52.2295
v  15.2781 -26.4625 -52.2295
v  21.6065 -21.6065 -52.2295
v  26.4625 -15.2781 -52.2295
v  29.5151 -7.9085 -52.2295
v  30.5562 0.0000 -52.2295
v  29.5151 7.9085 -52.2295
v  26.4625 15.2781 -52.2295
v  21.6065 21.6065 -52.2295
v  15.2781 26.4625 -52.2295
v  7.9085 29.5151 -52.2295
v  -4.0937 15.2781 -58.3347
v  0.0000 15.8171 -58.3347
v  -7.9085 13.6980 -58.3347
v  -11.1844 11.1844 -58.3347
v  -13.6980 7.9085 -58.3347
v  -15.2781 4.0937 -58.3347
v  -15.8171 0.0000 -58.3347
v  -15.2781 -4.0937 -58.3347
v  -13.6980 -7.9085 -58.3347
v  -11.1844 -11.1844 -58.3347
v  -7.9085 -13.6980 -58.3347
v  -4.0937 -15.2781 -58.3347
v  0.0000 -15.8171 -58.3347
v  4.0937 -15.2781 -58.3347
v  7.9085 -13.6980 -58.3347
v  11.1844 -11.1844 -58.3347
v  13.6980 -7.9085 -58.3347
v  15.2781 -4.0937 -58.3347
v  15.8171 0.0000 -58.3347
v  15.2781 4.0937 -58.3347
v  13.6980 7.9085 -58.3347
v  11.1844 11.1844 -58.3347
v  7.9085 13.6980 -58.3347
v  4.0937 15.2781 -58.3347
v  0.0000 0.0000 -60.4169
v  -2.2763 8.4950 65.4807
v  0.0000 8.7948 65.4807
v  -4.3975 7.6164 65.4807
v  -6.2189 6.2187 65.4807
v  -7.6164 4.3972 65.4807
v  -8.4950 2.2761 65.4807
v  -8.7948 0.0000 65.4807
v  -8.4950 -2.2763 65.4807
v  -7.6164 -4.3975 65.4807
v  -6.2189 -6.2189 65.4807
v  -4.3975 -7.6164 65.4807
v  -2.2763 -8.4950 65.4807
v  0.0000 -8.7948 65.4807
v  2.2761 -8.4950 65.4807
v  4.3972 -7.6164 65.4807
v  6.2187 -6.2189 65.4807
v  7.6164 -4.3975 65.4807
v  8.4950 -2.2763 65.4807
v  8.7948 0.0000 65.4807
v  8.4950 2.2761 65.4807
v  7.6164 4.3972 65.4807
v  6.2187 6.2187 65.4807
v  4.3972 7.6164 65.4807
v  2.2761 8.4950 65.4807
v  -1.1382 4.2474 66.2455
v  0.0000 4.3972 66.2455
v  -2.1986 3.8082 66.2455
v  -3.1095 3.1095 66.2455
v  -3.8082 2.1986 66.2455
v  -4.2476 1.1382 66.2455
v  -4.3975 0.0000 66.2455
v  -4.2476 -1.1382 66.2455
v  -3.8082 -2.1986 66.2455
v  -3.1095 -3.1095 66.2455
v  -2.1986 -3.8082 66.2455
v  -1.1382 -4.2476 66.2455
v  0.0000 -4.3975 66.2455
v  1.1382 -4.2476 66.2455
v  2.1986 -3.8082 66.2455
v  3.1095 -3.1095 66.2455
v  3.8082 -2.1986 66.2455
v  4.2474 -1.1382 66.2455
v  4.3972 0.0000 66.2455
v  4.2474 1.1382 66.2455
v  3.8082 2.1986 66.2455
v  3.1095 3.1095 66.2455
v  2.1986 3.8082 66.2455
v  1.1382 4.2474 66.2455
v  0.0000 28.3601 54.7319
v  -7.3401 27.3936 54.7319
v  -14.1801 24.5605 54.7319
v  -20.0536 20.0536 54.7319
v  -24.5605 14.1801 54.7319
v  -27.3936 7.3401 54.7319
v  -28.3601 0.0000 54.7319
v  -27.3936 -7.3401 54.7319
v  -24.5605 -14.1801 54.7319
v  -20.0536 -20.0536 54.7319
v  -14.1801 -24.5605 54.7319
v  -7.3401 -27.3936 54.7319
v  0.0000 -28.3601 54.7319
v  7.3401 -27.3936 54.7319
v  14.1801 -24.5605 54.7319
v  20.0536 -20.0536 54.7319
v  24.5605 -14.1801 54.7319
v  27.3936 -7.3401 54.7319
v  28.3601 0.0000 54.7319
v  27.3936 7.3401 54.7319
v  24.5605 14.1801 54.7319
v  20.0536 20.0536 54.7319
v  14.1801 24.5605 54.7319
v  7.3401 27.3936 54.7319
v  0.0000 0.0000 66.5343
v  12.9271 22.3904 54.2282
v  6.6916 24.9733 54.2282
v  4.7574 17.7549 53.2788
v  9.1907 15.9187 53.2788
v  5.5204 9.5616 52.1691
v  2.8575 10.6647 52.1691
v  -0.0000 25.8542 54.2282
v  -0.0000 18.3812 53.2788
v  -0.0000 11.0409 52.1691
v  -6.6916 24.9733 54.2282
v  -4.7574 17.7549 53.2788
v  -2.8575 10.6647 52.1691
v  -12.9271 22.3904 54.2282
v  -9.1908 15.9187 53.2788
v  -5.5205 9.5616 52.1691
v  -18.2817 18.2817 54.2282
v  -12.9977 12.9974 53.2788
v  -7.8070 7.8069 52.1691
v  -22.3904 12.9271 54.2282
v  -15.9187 9.1907 53.2788
v  -9.5616 5.5204 52.1691
v  -24.9733 6.6916 54.2282
v  -17.7551 4.7574 53.2788
v  -10.6647 2.8575 52.1691
v  -25.8542 0.0000 54.2282
v  -18.3815 -0.0000 53.2788
v  -11.0409 0.0000 52.1691
v  -24.9733 -6.6916 54.2282
v  -17.7551 -4.7574 53.2788
v  -10.6647 -2.8575 52.1691
v  -22.3904 -12.9271 54.2282
v  -15.9187 -9.1907 53.2788
v  -9.5616 -5.5204 52.1691
v  -18.2817 -18.2817 54.2282
v  -12.9977 -12.9977 53.2788
v  -7.8072 -7.8069 52.1691
v  -12.9271 -22.3904 54.2282
v  -9.1908 -15.9187 53.2788
v  -5.5205 -9.5616 52.1691
v  -6.6916 -24.9733 54.2282
v  -4.7574 -17.7551 53.2788
v  -2.8575 -10.6647 52.1691
v  -0.0000 -25.8542 54.2282
v  -0.0000 -18.3815 53.2788
v  -0.0000 -11.0409 52.1691
v  6.6916 -24.9733 54.2282
v  4.7574 -17.7551 53.2788
v  2.8575 -10.6647 52.1691
v  12.9271 -22.3904 54.2282
v  9.1907 -15.9187 53.2788
v  5.5204 -9.5616 52.1691
v  18.2816 -18.2817 54.2282
v  12.9974 -12.9977 53.2788
v  7.8069 -7.8072 52.1691
v  22.3903 -12.9271 54.2282
v  15.9187 -9.1907 53.2788
v  9.5616 -5.5204 52.1691
v  24.9733 -6.6916 54.2282
v  17.7548 -4.7574 53.2788
v  10.6647 -2.8575 52.1691
v  25.8541 0.0000 54.2282
v  18.3812 -0.0000 53.2788
v  11.0409 0.0000 52.1691
v  24.9733 6.6916 54.2282
v  17.7548 4.7574 53.2788
v  10.6647 2.8575 52.1691
v  22.3903 12.9271 54.2282
v  15.9187 9.1907 53.2788
v  9.5616 5.5204 52.1691
v  18.2816 18.2817 54.2282
v  12.9974 12.9974 53.2788
v  7.8069 7.8069 52.1691
v  14.3992 24.9403 54.1708
v  7.4536 27.8173 54.1708
v  7.6296 28.4742 53.6097
v  14.7393 25.5293 53.6097
v  -0.0000 28.7985 54.1708
v  -0.0000 29.4787 53.6097
v  20.3637 20.3637 54.1708
v  20.8445 20.8445 53.6097
v  24.9402 14.3993 54.1708
v  25.5293 14.7394 53.6097
v  27.8173 7.4536 54.1708
v  28.4741 7.6297 53.6097
v  28.7985 0.0000 54.1708
v  29.4787 0.0000 53.6097
v  27.8173 -7.4536 54.1708
v  28.4741 -7.6297 53.6097
v  24.9402 -14.3993 54.1708
v  25.5293 -14.7394 53.6097
v  20.3637 -20.3637 54.1708
v  20.8445 -20.8445 53.6097
v  14.3992 -24.9403 54.1708
v  14.7393 -25.5293 53.6097
v  7.4536 -27.8173 54.1708
v  7.6296 -28.4742 53.6097
v  -0.0000 -28.7985 54.1708
v  -0.0000 -29.4787 53.6097
v  -7.4537 -27.8173 54.1708
v  -7.6297 -28.4742 53.6097
v  -14.3993 -24.9403 54.1708
v  -14.7394 -25.5293 53.6097
v  -20.3637 -20.3637 54.1708
v  -20.8445 -20.8445 53.6097
v  -24.9403 -14.3993 54.1708
v  -25.5293 -14.7394 53.6097
v  -27.8173 -7.4536 54.1708
v  -28.4742 -7.6297 53.6097
v  -28.7986 0.0000 54.1708
v  -29.4788 0.0000 53.6097
v  -27.8173 7.4536 54.1708
v  -28.4742 7.6297 53.6097
v  -24.9403 14.3993 54.1708
v  -25.5293 14.7394 53.6097
v  -20.3637 20.3637 54.1708
v  -20.8445 20.8445 53.6097
v  -14.3993 24.9403 54.1708
v  -14.7394 25.5293 53.6097
v  -7.4537 27.8173 54.1708
v  -7.6297 28.4742 53.6097
v  4.2466 7.3556 51.7456
v  2.1984 8.2042 51.7456
v  2.0261 7.5616 51.1988
v  3.9141 6.7795 51.1988
v  -0.0000 8.4935 51.7456
v  -0.0000 7.8285 51.1988
v  -2.1984 8.2042 51.7456
v  -2.0262 7.5616 51.1988
v  -4.2469 7.3556 51.7456
v  -3.9144 6.7795 51.1988
v  -6.0059 6.0058 51.7456
v  -5.5357 5.5354 51.1988
v  -7.3556 4.2466 51.7456
v  -6.7798 3.9141 51.1988
v  -8.2042 2.1984 51.7456
v  -7.5619 2.0262 51.1988
v  -8.4935 0.0000 51.7456
v  -7.8286 0.0000 51.1988
v  -8.2042 -2.1984 51.7456
v  -7.5619 -2.0262 51.1988
v  -7.3556 -4.2469 51.7456
v  -6.7798 -3.9144 51.1988
v  -6.0059 -6.0058 51.7456
v  -5.5357 -5.5357 51.1988
v  -4.2469 -7.3556 51.7456
v  -3.9144 -6.7798 51.1988
v  -2.1984 -8.2042 51.7456
v  -2.0262 -7.5618 51.1988
v  -0.0000 -8.4935 51.7456
v  -0.0000 -7.8285 51.1988
v  2.1984 -8.2042 51.7456
v  2.0261 -7.5618 51.1988
v  4.2466 -7.3556 51.7456
v  3.9141 -6.7798 51.1988
v  6.0058 -6.0058 51.7456
v  5.5354 -5.5357 51.1988
v  7.3556 -4.2469 51.7456
v  6.7795 -3.9144 51.1988
v  8.2042 -2.1984 51.7456
v  7.5616 -2.0262 51.1988
v  8.4935 0.0000 51.7456
v  7.8285 0.0000 51.1988
v  8.2042 2.1984 51.7456
v  7.5616 2.0262 51.1988
v  7.3556 4.2466 51.7456
v  6.7795 3.9141 51.1988
v  6.0058 6.0058 51.7456
v  5.5354 5.5354 51.1988
v  1.1999 4.4778 51.0004
v  2.3177 4.0147 51.0004
v  0.4630 1.7282 50.8825
v  0.8946 1.5494 50.8825
v  -0.0000 4.6358 51.0004
v  -0.0000 1.7892 50.8825
v  -1.1999 4.4778 51.0004
v  -0.4631 1.7282 50.8825
v  -2.3180 4.0147 51.0004
v  -0.8946 1.5494 50.8825
v  -3.2779 3.2779 51.0004
v  -1.2652 1.2649 50.8825
v  -4.0147 2.3177 51.0004
v  -1.5494 0.8946 50.8825
v  -4.4778 1.1999 51.0004
v  -1.7282 0.4630 50.8825
v  -4.6358 0.0000 51.0004
v  -1.7892 0.0000 50.8825
v  -4.4778 -1.1999 51.0004
v  -1.7282 -0.4630 50.8825
v  -4.0147 -2.3180 51.0004
v  -1.5494 -0.8946 50.8825
v  -3.2779 -3.2779 51.0004
v  -1.2652 -1.2652 50.8825
v  -2.3180 -4.0147 51.0004
v  -0.8946 -1.5494 50.8825
v  -1.1999 -4.4778 51.0004
v  -0.4631 -1.7282 50.8825
v  -0.0000 -4.6358 51.0004
v  -0.0000 -1.7892 50.8825
v  1.1999 -4.4778 51.0004
v  0.4630 -1.7282 50.8825
v  2.3177 -4.0147 51.0004
v  0.8946 -1.5494 50.8825
v  3.2778 -3.2779 51.0004
v  1.2649 -1.2652 50.8825
v  4.0147 -2.3180 51.0004
v  1.5494 -0.8946 50.8825
v  4.4777 -1.1999 51.0004
v  1.7282 -0.4630 50.8825
v  4.6357 0.0000 51.0004
v  1.7892 0.0000 50.8825
v  4.4777 1.1999 51.0004
v  1.7282 0.4630 50.8825
v  4.0147 2.3177 51.0004
v  1.5494 0.8946 50.8825
v  3.2778 3.2779 51.0004
v  1.2649 1.2649 50.8825
v  -0.0000 0.0000 50.8127
# 651 vertices

vt 0.2467 0.2788 0.0000
vt 0.2452 0.2901 0.0000
vt 0.2349 0.2873 0.0000
vt 0.2393 0.2768 0.0000
vt 0.2257 0.2820 0.0000
vt 0.2326 0.2730 0.0000
vt 0.2181 0.2745 0.0000
vt 0.2272 0.2675 0.0000
vt 0.2128 0.2653 0.0000
vt 0.2234 0.2609 0.0000
vt 0.2100 0.2550 0.0000
vt 0.2214 0.2535 0.0000
vt 0.2100 0.2443 0.0000
vt 0.2213 0.2458 0.0000
vt 0.2127 0.2340 0.0000
vt 0.2233 0.2384 0.0000
vt 0.2181 0.2248 0.0000
vt 0.2271 0.2317 0.0000
vt 0.2256 0.2172 0.0000
vt 0.2325 0.2263 0.0000
vt 0.2348 0.2119 0.0000
vt 0.2392 0.2225 0.0000
vt 0.2451 0.2091 0.0000
vt 0.2466 0.2205 0.0000
vt 0.2558 0.2091 0.0000
vt 0.2543 0.2204 0.0000
vt 0.2661 0.2118 0.0000
vt 0.2617 0.2224 0.0000
vt 0.2753 0.2172 0.0000
vt 0.2683 0.2262 0.0000
vt 0.2828 0.2247 0.0000
vt 0.2738 0.2316 0.0000
vt 0.2882 0.2339 0.0000
vt 0.2776 0.2383 0.0000
vt 0.2910 0.2442 0.0000
vt 0.2796 0.2457 0.0000
vt 0.2910 0.2549 0.0000
vt 0.2796 0.2534 0.0000
vt 0.2882 0.2652 0.0000
vt 0.2777 0.2608 0.0000
vt 0.2829 0.2744 0.0000
vt 0.2739 0.2674 0.0000
vt 0.2754 0.2819 0.0000
vt 0.2684 0.2729 0.0000
vt 0.2662 0.2873 0.0000
vt 0.2618 0.2767 0.0000
vt 0.2559 0.2901 0.0000
vt 0.2544 0.2787 0.0000
vt 0.2424 0.3125 0.0000
vt 0.2264 0.3082 0.0000
vt 0.2309 0.2971 0.0000
vt 0.2439 0.3005 0.0000
vt 0.2120 0.3000 0.0000
vt 0.2193 0.2904 0.0000
vt 0.2003 0.2883 0.0000
vt 0.2098 0.2809 0.0000
vt 0.1920 0.2740 0.0000
vt 0.2031 0.2694 0.0000
vt 0.1876 0.2580 0.0000
vt 0.1996 0.2564 0.0000
vt 0.1876 0.2415 0.0000
vt 0.1996 0.2430 0.0000
vt 0.1918 0.2255 0.0000
vt 0.2030 0.2300 0.0000
vt 0.2001 0.2111 0.0000
vt 0.2097 0.2184 0.0000
vt 0.2118 0.1994 0.0000
vt 0.2191 0.2089 0.0000
vt 0.2261 0.1911 0.0000
vt 0.2307 0.2022 0.0000
vt 0.2420 0.1867 0.0000
vt 0.2437 0.1987 0.0000
vt 0.2586 0.1867 0.0000
vt 0.2571 0.1987 0.0000
vt 0.2746 0.1909 0.0000
vt 0.2700 0.2021 0.0000
vt 0.2890 0.1992 0.0000
vt 0.2817 0.2088 0.0000
vt 0.3007 0.2109 0.0000
vt 0.2912 0.2182 0.0000
vt 0.3090 0.2252 0.0000
vt 0.2979 0.2298 0.0000
vt 0.3133 0.2411 0.0000
vt 0.3014 0.2428 0.0000
vt 0.3134 0.2577 0.0000
vt 0.3014 0.2562 0.0000
vt 0.3091 0.2737 0.0000
vt 0.2980 0.2691 0.0000
vt 0.3009 0.2881 0.0000
vt 0.2913 0.2808 0.0000
vt 0.2892 0.2998 0.0000
vt 0.2818 0.2903 0.0000
vt 0.2749 0.3081 0.0000
vt 0.2702 0.2970 0.0000
vt 0.2589 0.3124 0.0000
vt 0.2573 0.3005 0.0000
vt 0.2377 0.3494 0.0000
vt 0.2123 0.3427 0.0000
vt 0.2189 0.3264 0.0000
vt 0.2399 0.3319 0.0000
vt 0.1895 0.3296 0.0000
vt 0.2001 0.3156 0.0000
vt 0.1708 0.3111 0.0000
vt 0.1848 0.3003 0.0000
vt 0.1576 0.2884 0.0000
vt 0.1739 0.2816 0.0000
vt 0.1508 0.2630 0.0000
vt 0.1682 0.2607 0.0000
vt 0.1507 0.2368 0.0000
vt 0.1681 0.2390 0.0000
vt 0.1574 0.2114 0.0000
vt 0.1737 0.2180 0.0000
vt 0.1705 0.1886 0.0000
vt 0.1845 0.1992 0.0000
vt 0.1890 0.1699 0.0000
vt 0.1998 0.1839 0.0000
vt 0.2117 0.1567 0.0000
vt 0.2185 0.1730 0.0000
vt 0.2370 0.1499 0.0000
vt 0.2394 0.1673 0.0000
vt 0.2633 0.1498 0.0000
vt 0.2611 0.1672 0.0000
vt 0.2887 0.1565 0.0000
vt 0.2820 0.1728 0.0000
vt 0.3115 0.1696 0.0000
vt 0.3008 0.1836 0.0000
vt 0.3301 0.1881 0.0000
vt 0.3162 0.1989 0.0000
vt 0.3433 0.2108 0.0000
vt 0.3271 0.2176 0.0000
vt 0.3502 0.2361 0.0000
vt 0.3328 0.2385 0.0000
vt 0.3503 0.2624 0.0000
vt 0.3328 0.2602 0.0000
vt 0.3436 0.2878 0.0000
vt 0.3273 0.2811 0.0000
vt 0.3305 0.3106 0.0000
vt 0.3165 0.2999 0.0000
vt 0.3120 0.3292 0.0000
vt 0.3012 0.3153 0.0000
vt 0.2893 0.3424 0.0000
vt 0.2825 0.3262 0.0000
vt 0.2639 0.3493 0.0000
vt 0.2616 0.3319 0.0000
vt 0.1894 0.3981 0.0000
vt 0.2022 0.3674 0.0000
vt 0.2344 0.3759 0.0000
vt 0.2300 0.4089 0.0000
vt 0.1531 0.3773 0.0000
vt 0.1734 0.3509 0.0000
vt 0.1234 0.3477 0.0000
vt 0.1498 0.3275 0.0000
vt 0.1023 0.3114 0.0000
vt 0.1330 0.2988 0.0000
vt 0.0913 0.2710 0.0000
vt 0.1243 0.2667 0.0000
vt 0.0912 0.2291 0.0000
vt 0.1242 0.2335 0.0000
vt 0.1020 0.1885 0.0000
vt 0.1326 0.2013 0.0000
vt 0.1228 0.1522 0.0000
vt 0.1492 0.1725 0.0000
vt 0.1524 0.1225 0.0000
vt 0.1726 0.1489 0.0000
vt 0.1886 0.1014 0.0000
vt 0.2013 0.1321 0.0000
vt 0.2291 0.0904 0.0000
vt 0.2334 0.1234 0.0000
vt 0.2710 0.0903 0.0000
vt 0.2666 0.1233 0.0000
vt 0.3115 0.1011 0.0000
vt 0.2988 0.1318 0.0000
vt 0.3479 0.1219 0.0000
vt 0.3276 0.1483 0.0000
vt 0.3776 0.1515 0.0000
vt 0.3512 0.1717 0.0000
vt 0.3987 0.1877 0.0000
vt 0.3679 0.2004 0.0000
vt 0.4096 0.2282 0.0000
vt 0.3767 0.2325 0.0000
vt 0.4098 0.2701 0.0000
vt 0.3768 0.2657 0.0000
vt 0.3990 0.3106 0.0000
vt 0.3683 0.2979 0.0000
vt 0.3782 0.3470 0.0000
vt 0.3518 0.3267 0.0000
vt 0.3486 0.3767 0.0000
vt 0.3284 0.3503 0.0000
vt 0.3123 0.3978 0.0000
vt 0.2997 0.3670 0.0000
vt 0.2719 0.4087 0.0000
vt 0.2676 0.3758 0.0000
vt 0.1733 0.4365 0.0000
vt 0.2243 0.4501 0.0000
vt 0.1275 0.4102 0.0000
vt 0.0902 0.3729 0.0000
vt 0.0637 0.3272 0.0000
vt 0.0500 0.2762 0.0000
vt 0.0500 0.2234 0.0000
vt 0.0636 0.1724 0.0000
vt 0.0899 0.1266 0.0000
vt 0.1272 0.0893 0.0000
vt 0.1729 0.0628 0.0000
vt 0.2239 0.0491 0.0000
vt 0.2767 0.0491 0.0000
vt 0.3277 0.0627 0.0000
vt 0.3734 0.0890 0.0000
vt 0.4108 0.1263 0.0000
vt 0.4373 0.1720 0.0000
vt 0.4510 0.2230 0.0000
vt 0.4510 0.2758 0.0000
vt 0.4374 0.3268 0.0000
vt 0.4111 0.3725 0.0000
vt 0.3738 0.4099 0.0000
vt 0.3281 0.4364 0.0000
vt 0.2771 0.4501 0.0000
vt 0.1561 0.4771 0.0000
vt 0.2182 0.4938 0.0000
vt 0.1005 0.4449 0.0000
vt 0.0550 0.3994 0.0000
vt 0.0229 0.3437 0.0000
vt 0.0063 0.2816 0.0000
vt 0.0063 0.2173 0.0000
vt 0.0230 0.1552 0.0000
vt 0.0552 0.0996 0.0000
vt 0.1006 0.0541 0.0000
vt 0.1563 0.0220 0.0000
vt 0.2184 0.0054 0.0000
vt 0.2827 0.0054 0.0000
vt 0.3448 0.0221 0.0000
vt 0.4005 0.0543 0.0000
vt 0.4460 0.0997 0.0000
vt 0.4781 0.1554 0.0000
vt 0.4947 0.2175 0.0000
vt 0.4947 0.2818 0.0000
vt 0.4780 0.3439 0.0000
vt 0.4458 0.3996 0.0000
vt 0.4003 0.4451 0.0000
vt 0.3446 0.4772 0.0000
vt 0.2825 0.4938 0.0000
vt 0.2241 0.5510 0.0000
vt 0.2186 0.5073 0.0000
vt 0.2825 0.5073 0.0000
vt 0.2765 0.5509 0.0000
vt 0.1735 0.5647 0.0000
vt 0.1569 0.5239 0.0000
vt 0.1282 0.5909 0.0000
vt 0.1016 0.5558 0.0000
vt 0.0912 0.6280 0.0000
vt 0.0564 0.6010 0.0000
vt 0.0650 0.6734 0.0000
vt 0.0245 0.6563 0.0000
vt 0.0516 0.7241 0.0000
vt 0.0079 0.7180 0.0000
vt 0.0516 0.7765 0.0000
vt 0.0079 0.7819 0.0000
vt 0.0653 0.8271 0.0000
vt 0.0245 0.8436 0.0000
vt 0.0915 0.8724 0.0000
vt 0.0564 0.8990 0.0000
vt 0.1286 0.9094 0.0000
vt 0.1016 0.9441 0.0000
vt 0.1741 0.9355 0.0000
vt 0.1569 0.9761 0.0000
vt 0.2247 0.9490 0.0000
vt 0.2187 0.9926 0.0000
vt 0.2771 0.9489 0.0000
vt 0.2825 0.9926 0.0000
vt 0.3277 0.9353 0.0000
vt 0.3443 0.9761 0.0000
vt 0.3730 0.9090 0.0000
vt 0.3996 0.9441 0.0000
vt 0.4100 0.8719 0.0000
vt 0.4448 0.8990 0.0000
vt 0.4361 0.8265 0.0000
vt 0.4767 0.8436 0.0000
vt 0.4496 0.7759 0.0000
vt 0.4932 0.7819 0.0000
vt 0.4496 0.7235 0.0000
vt 0.4932 0.7180 0.0000
vt 0.4359 0.6729 0.0000
vt 0.4767 0.6563 0.0000
vt 0.4096 0.6276 0.0000
vt 0.4448 0.6010 0.0000
vt 0.3725 0.5906 0.0000
vt 0.3996 0.5558 0.0000
vt 0.3271 0.5644 0.0000
vt 0.3443 0.5239 0.0000
vt 0.2293 0.5924 0.0000
vt 0.2708 0.5923 0.0000
vt 0.1893 0.6033 0.0000
vt 0.1534 0.6242 0.0000
vt 0.1242 0.6536 0.0000
vt 0.1035 0.6896 0.0000
vt 0.0929 0.7297 0.0000
vt 0.0930 0.7712 0.0000
vt 0.1039 0.8113 0.0000
vt 0.1248 0.8472 0.0000
vt 0.1542 0.8764 0.0000
vt 0.1902 0.8971 0.0000
vt 0.2304 0.9077 0.0000
vt 0.2719 0.9075 0.0000
vt 0.3119 0.8967 0.0000
vt 0.3478 0.8758 0.0000
vt 0.3770 0.8464 0.0000
vt 0.3977 0.8103 0.0000
vt 0.4083 0.7702 0.0000
vt 0.4082 0.7287 0.0000
vt 0.3973 0.6887 0.0000
vt 0.3764 0.6528 0.0000
vt 0.3470 0.6235 0.0000
vt 0.3110 0.6029 0.0000
vt 0.2345 0.6326 0.0000
vt 0.2655 0.6324 0.0000
vt 0.2047 0.6407 0.0000
vt 0.1780 0.6563 0.0000
vt 0.1562 0.6783 0.0000
vt 0.1409 0.7052 0.0000
vt 0.1330 0.7351 0.0000
vt 0.1332 0.7661 0.0000
vt 0.1413 0.7959 0.0000
vt 0.1569 0.8226 0.0000
vt 0.1789 0.8444 0.0000
vt 0.2058 0.8597 0.0000
vt 0.2357 0.8676 0.0000
vt 0.2667 0.8674 0.0000
vt 0.2965 0.8592 0.0000
vt 0.3232 0.8436 0.0000
vt 0.3450 0.8216 0.0000
vt 0.3603 0.7948 0.0000
vt 0.3682 0.7648 0.0000
vt 0.3680 0.7339 0.0000
vt 0.3599 0.7041 0.0000
vt 0.3443 0.6773 0.0000
vt 0.3223 0.6556 0.0000
vt 0.2954 0.6402 0.0000
vt 0.2398 0.6720 0.0000
vt 0.2603 0.6718 0.0000
vt 0.2199 0.6774 0.0000
vt 0.2022 0.6878 0.0000
vt 0.1878 0.7025 0.0000
vt 0.1776 0.7204 0.0000
vt 0.1724 0.7403 0.0000
vt 0.1726 0.7608 0.0000
vt 0.1780 0.7806 0.0000
vt 0.1885 0.7984 0.0000
vt 0.2031 0.8128 0.0000
vt 0.2210 0.8230 0.0000
vt 0.2409 0.8281 0.0000
vt 0.2614 0.8280 0.0000
vt 0.2813 0.8225 0.0000
vt 0.2990 0.8121 0.0000
vt 0.3134 0.7975 0.0000
vt 0.3236 0.7796 0.0000
vt 0.3288 0.7597 0.0000
vt 0.3286 0.7391 0.0000
vt 0.3231 0.7193 0.0000
vt 0.3127 0.7016 0.0000
vt 0.2981 0.6872 0.0000
vt 0.2802 0.6770 0.0000
vt 0.2451 0.7110 0.0000
vt 0.2554 0.7109 0.0000
vt 0.2352 0.7138 0.0000
vt 0.2264 0.7190 0.0000
vt 0.2192 0.7263 0.0000
vt 0.2141 0.7353 0.0000
vt 0.2115 0.7452 0.0000
vt 0.2116 0.7555 0.0000
vt 0.2144 0.7654 0.0000
vt 0.2196 0.7742 0.0000
vt 0.2269 0.7814 0.0000
vt 0.2359 0.7865 0.0000
vt 0.2458 0.7890 0.0000
vt 0.2561 0.7889 0.0000
vt 0.2660 0.7862 0.0000
vt 0.2748 0.7810 0.0000
vt 0.2820 0.7736 0.0000
vt 0.2871 0.7647 0.0000
vt 0.2897 0.7548 0.0000
vt 0.2896 0.7445 0.0000
vt 0.2868 0.7346 0.0000
vt 0.2816 0.7257 0.0000
vt 0.2743 0.7185 0.0000
vt 0.2653 0.7135 0.0000
vt 0.2506 0.7500 0.0000
vt 0.2425 0.2690 0.0000
vt 0.2478 0.2704 0.0000
vt 0.2377 0.2663 0.0000
vt 0.2339 0.2624 0.0000
vt 0.2311 0.2577 0.0000
vt 0.2297 0.2524 0.0000
vt 0.2297 0.2469 0.0000
vt 0.2311 0.2416 0.0000
vt 0.2338 0.2368 0.0000
vt 0.2377 0.2330 0.0000
vt 0.2424 0.2302 0.0000
vt 0.2477 0.2288 0.0000
vt 0.2532 0.2288 0.0000
vt 0.2585 0.2302 0.0000
vt 0.2632 0.2329 0.0000
vt 0.2671 0.2368 0.0000
vt 0.2699 0.2415 0.0000
vt 0.2713 0.2468 0.0000
vt 0.2713 0.2523 0.0000
vt 0.2699 0.2576 0.0000
vt 0.2672 0.2623 0.0000
vt 0.2633 0.2662 0.0000
vt 0.2586 0.2690 0.0000
vt 0.2533 0.2704 0.0000
vt 0.2465 0.2592 0.0000
vt 0.2492 0.2599 0.0000
vt 0.2442 0.2579 0.0000
vt 0.2422 0.2560 0.0000
vt 0.2409 0.2536 0.0000
vt 0.2401 0.2510 0.0000
vt 0.2401 0.2483 0.0000
vt 0.2408 0.2456 0.0000
vt 0.2422 0.2433 0.0000
vt 0.2441 0.2413 0.0000
vt 0.2465 0.2400 0.0000
vt 0.2491 0.2392 0.0000
vt 0.2518 0.2392 0.0000
vt 0.2545 0.2399 0.0000
vt 0.2568 0.2413 0.0000
vt 0.2588 0.2432 0.0000
vt 0.2601 0.2456 0.0000
vt 0.2608 0.2482 0.0000
vt 0.2608 0.2509 0.0000
vt 0.2601 0.2536 0.0000
vt 0.2588 0.2559 0.0000
vt 0.2569 0.2579 0.0000
vt 0.2545 0.2592 0.0000
vt 0.2519 0.2599 0.0000
vt 0.2410 0.3237 0.0000
vt 0.2221 0.3187 0.0000
vt 0.2052 0.3090 0.0000
vt 0.1914 0.2952 0.0000
vt 0.1816 0.2784 0.0000
vt 0.1765 0.2596 0.0000
vt 0.1764 0.2401 0.0000
vt 0.1814 0.2212 0.0000
vt 0.1911 0.2043 0.0000
vt 0.2048 0.1905 0.0000
vt 0.2217 0.1807 0.0000
vt 0.2405 0.1756 0.0000
vt 0.2600 0.1755 0.0000
vt 0.2789 0.1805 0.0000
vt 0.2958 0.1902 0.0000
vt 0.3096 0.2039 0.0000
vt 0.3194 0.2208 0.0000
vt 0.3245 0.2396 0.0000
vt 0.3246 0.2591 0.0000
vt 0.3196 0.2780 0.0000
vt 0.3099 0.2949 0.0000
vt 0.2961 0.3087 0.0000
vt 0.2793 0.3185 0.0000
vt 0.2605 0.3236 0.0000
vt 0.2505 0.2496 0.0000
vt 0.6650 0.4491 0.0000
vt 0.6162 0.4209 0.0000
vt 0.6542 0.3714 0.0000
vt 0.6889 0.3914 0.0000
vt 0.7124 0.3348 0.0000
vt 0.6915 0.3228 0.0000
vt 0.5764 0.3810 0.0000
vt 0.6259 0.3430 0.0000
vt 0.6745 0.3057 0.0000
vt 0.5482 0.3322 0.0000
vt 0.6059 0.3083 0.0000
vt 0.6625 0.2849 0.0000
vt 0.5336 0.2778 0.0000
vt 0.5955 0.2696 0.0000
vt 0.6562 0.2616 0.0000
vt 0.5336 0.2214 0.0000
vt 0.5955 0.2296 0.0000
vt 0.6562 0.2376 0.0000
vt 0.5482 0.1670 0.0000
vt 0.6059 0.1909 0.0000
vt 0.6625 0.2143 0.0000
vt 0.5764 0.1182 0.0000
vt 0.6259 0.1562 0.0000
vt 0.6745 0.1935 0.0000
vt 0.6162 0.0783 0.0000
vt 0.6542 0.1279 0.0000
vt 0.6915 0.1765 0.0000
vt 0.6650 0.0502 0.0000
vt 0.6889 0.1078 0.0000
vt 0.7124 0.1644 0.0000
vt 0.7195 0.0356 0.0000
vt 0.7276 0.0975 0.0000
vt 0.7356 0.1582 0.0000
vt 0.7758 0.0356 0.0000
vt 0.7677 0.0975 0.0000
vt 0.7597 0.1582 0.0000
vt 0.8303 0.0502 0.0000
vt 0.8064 0.1078 0.0000
vt 0.7829 0.1644 0.0000
vt 0.8791 0.0783 0.0000
vt 0.8411 0.1279 0.0000
vt 0.8038 0.1765 0.0000
vt 0.9189 0.1182 0.0000
vt 0.8694 0.1562 0.0000
vt 0.8208 0.1935 0.0000
vt 0.9471 0.1670 0.0000
vt 0.8894 0.1909 0.0000
vt 0.8328 0.2143 0.0000
vt 0.9617 0.2214 0.0000
vt 0.8998 0.2296 0.0000
vt 0.8391 0.2376 0.0000
vt 0.9617 0.2778 0.0000
vt 0.8998 0.2696 0.0000
vt 0.8391 0.2616 0.0000
vt 0.9471 0.3322 0.0000
vt 0.8894 0.3083 0.0000
vt 0.8328 0.2849 0.0000
vt 0.9189 0.3810 0.0000
vt 0.8694 0.3430 0.0000
vt 0.8208 0.3057 0.0000
vt 0.8791 0.4209 0.0000
vt 0.8411 0.3714 0.0000
vt 0.8038 0.3228 0.0000
vt 0.8303 0.4491 0.0000
vt 0.8064 0.3914 0.0000
vt 0.7829 0.3348 0.0000
vt 0.7758 0.4636 0.0000
vt 0.7677 0.4018 0.0000
vt 0.7597 0.3410 0.0000
vt 0.7195 0.4636 0.0000
vt 0.7276 0.4018 0.0000
vt 0.7356 0.3410 0.0000
vt 0.6557 0.4716 0.0000
vt 0.6014 0.4403 0.0000
vt 0.5969 0.4461 0.0000
vt 0.6529 0.4784 0.0000
vt 0.5570 0.3959 0.0000
vt 0.5512 0.4004 0.0000
vt 0.7163 0.4879 0.0000
vt 0.7153 0.4951 0.0000
vt 0.7790 0.4879 0.0000
vt 0.7800 0.4951 0.0000
vt 0.8396 0.4716 0.0000
vt 0.8424 0.4784 0.0000
vt 0.8939 0.4403 0.0000
vt 0.8984 0.4461 0.0000
vt 0.9383 0.3959 0.0000
vt 0.9441 0.4004 0.0000
vt 0.9697 0.3416 0.0000
vt 0.9764 0.3444 0.0000
vt 0.9859 0.2810 0.0000
vt 0.9932 0.2819 0.0000
vt 0.9859 0.2182 0.0000
vt 0.9932 0.2173 0.0000
vt 0.9697 0.1576 0.0000
vt 0.9764 0.1548 0.0000
vt 0.9383 0.1033 0.0000
vt 0.9441 0.0989 0.0000
vt 0.8939 0.0590 0.0000
vt 0.8984 0.0531 0.0000
vt 0.8396 0.0276 0.0000
vt 0.8424 0.0208 0.0000
vt 0.7790 0.0114 0.0000
vt 0.7800 0.0041 0.0000
vt 0.7163 0.0114 0.0000
vt 0.7153 0.0041 0.0000
vt 0.6557 0.0276 0.0000
vt 0.6529 0.0208 0.0000
vt 0.6014 0.0590 0.0000
vt 0.5969 0.0531 0.0000
vt 0.5570 0.1033 0.0000
vt 0.5512 0.0989 0.0000
vt 0.5256 0.1576 0.0000
vt 0.5189 0.1548 0.0000
vt 0.5094 0.2182 0.0000
vt 0.5021 0.2173 0.0000
vt 0.5094 0.2810 0.0000
vt 0.5021 0.2819 0.0000
vt 0.5256 0.3416 0.0000
vt 0.5189 0.3444 0.0000
vt 0.7205 0.3152 0.0000
vt 0.7044 0.3060 0.0000
vt 0.7087 0.3004 0.0000
vt 0.7232 0.3087 0.0000
vt 0.6913 0.2929 0.0000
vt 0.6969 0.2886 0.0000
vt 0.6820 0.2768 0.0000
vt 0.6885 0.2741 0.0000
vt 0.6772 0.2589 0.0000
vt 0.6842 0.2580 0.0000
vt 0.6772 0.2403 0.0000
vt 0.6842 0.2413 0.0000
vt 0.6820 0.2224 0.0000
vt 0.6885 0.2251 0.0000
vt 0.6913 0.2064 0.0000
vt 0.6969 0.2107 0.0000
vt 0.7044 0.1933 0.0000
vt 0.7087 0.1988 0.0000
vt 0.7205 0.1840 0.0000
vt 0.7232 0.1905 0.0000
vt 0.7384 0.1792 0.0000
vt 0.7393 0.1862 0.0000
vt 0.7569 0.1792 0.0000
vt 0.7560 0.1862 0.0000
vt 0.7748 0.1840 0.0000
vt 0.7721 0.1905 0.0000
vt 0.7909 0.1933 0.0000
vt 0.7866 0.1988 0.0000
vt 0.8040 0.2064 0.0000
vt 0.7984 0.2107 0.0000
vt 0.8133 0.2224 0.0000
vt 0.8068 0.2251 0.0000
vt 0.8181 0.2403 0.0000
vt 0.8111 0.2413 0.0000
vt 0.8181 0.2589 0.0000
vt 0.8111 0.2580 0.0000
vt 0.8133 0.2768 0.0000
vt 0.8068 0.2741 0.0000
vt 0.8040 0.2929 0.0000
vt 0.7984 0.2886 0.0000
vt 0.7909 0.3060 0.0000
vt 0.7866 0.3004 0.0000
vt 0.7748 0.3152 0.0000
vt 0.7721 0.3087 0.0000
vt 0.7569 0.3200 0.0000
vt 0.7560 0.3131 0.0000
vt 0.7384 0.3200 0.0000
vt 0.7393 0.3131 0.0000
vt 0.7246 0.2797 0.0000
vt 0.7332 0.2846 0.0000
vt 0.7388 0.2612 0.0000
vt 0.7421 0.2631 0.0000
vt 0.7176 0.2727 0.0000
vt 0.7361 0.2585 0.0000
vt 0.7127 0.2641 0.0000
vt 0.7341 0.2552 0.0000
vt 0.7101 0.2546 0.0000
vt 0.7332 0.2515 0.0000
vt 0.7101 0.2447 0.0000
vt 0.7332 0.2477 0.0000
vt 0.7127 0.2351 0.0000
vt 0.7342 0.2440 0.0000
vt 0.7176 0.2266 0.0000
vt 0.7361 0.2407 0.0000
vt 0.7246 0.2196 0.0000
vt 0.7388 0.2380 0.0000
vt 0.7332 0.2146 0.0000
vt 0.7421 0.2361 0.0000
vt 0.7427 0.2121 0.0000
vt 0.7457 0.2351 0.0000
vt 0.7526 0.2121 0.0000
vt 0.7496 0.2351 0.0000
vt 0.7621 0.2146 0.0000
vt 0.7532 0.2361 0.0000
vt 0.7707 0.2196 0.0000
vt 0.7565 0.2380 0.0000
vt 0.7777 0.2266 0.0000
vt 0.7592 0.2407 0.0000
vt 0.7826 0.2351 0.0000
vt 0.7611 0.2440 0.0000
vt 0.7852 0.2447 0.0000
vt 0.7621 0.2477 0.0000
vt 0.7852 0.2546 0.0000
vt 0.7621 0.2515 0.0000
vt 0.7826 0.2641 0.0000
vt 0.7611 0.2552 0.0000
vt 0.7777 0.2727 0.0000
vt 0.7592 0.2585 0.0000
vt 0.7707 0.2797 0.0000
vt 0.7565 0.2612 0.0000
vt 0.7621 0.2846 0.0000
vt 0.7532 0.2631 0.0000
vt 0.7526 0.2872 0.0000
vt 0.7496 0.2641 0.0000
vt 0.7427 0.2872 0.0000
vt 0.7457 0.2641 0.0000
vt 0.7476 0.2496 0.0000
# 675 texture coords

g Eyeball
usemtl Eye
s 1
f 1/1 2/2 3/3 4/4 
f 4/4 3/3 5/5 6/6 
f 6/6 5/5 7/7 8/8 
f 8/8 7/7 9/9 10/10 
f 10/10 9/9 11/11 12/12 
f 12/12 11/11 13/13 14/14 
f 14/14 13/13 15/15 16/16 
f 16/16 15/15 17/17 18/18 
f 18/18 17/17 19/19 20/20 
f 20/20 19/19 21/21 22/22 
f 22/22 21/21 23/23 24/24 
f 24/24 23/23 25/25 26/26 
f 26/26 25/25 27/27 28/28 
f 28/28 27/27 29/29 30/30 
f 30/30 29/29 31/31 32/32 
f 32/32 31/31 33/33 34/34 
f 34/34 33/33 35/35 36/36 
f 36/36 35/35 37/37 38/38 
f 38/38 37/37 39/39 40/40 
f 40/40 39/39 41/41 42/42 
f 42/42 41/41 43/43 44/44 
f 44/44 43/43 45/45 46/46 
f 46/46 45/45 47/47 48/48 
f 48/48 47/47 2/2 1/1 
f 49/49 50/50 51/51 52/52 
f 50/50 53/53 54/54 51/51 
f 53/53 55/55 56/56 54/54 
f 55/55 57/57 58/58 56/56 
f 57/57 59/59 60/60 58/58 
f 59/59 61/61 62/62 60/60 
f 61/61 63/63 64/64 62/62 
f 63/63 65/65 66/66 64/64 
f 65/65 67/67 68/68 66/66 
f 67/67 69/69 70/70 68/68 
f 69/69 71/71 72/72 70/70 
f 71/71 73/73 74/74 72/72 
f 73/73 75/75 76/76 74/74 
f 75/75 77/77 78/78 76/76 
f 77/77 79/79 80/80 78/78 
f 79/79 81/81 82/82 80/80 
f 81/81 83/83 84/84 82/82 
f 83/83 85/85 86/86 84/84 
f 85/85 87/87 88/88 86/86 
f 87/87 89/89 90/90 88/88 
f 89/89 91/91 92/92 90/90 
f 91/91 93/93 94/94 92/92 
f 93/93 95/95 96/96 94/94 
f 95/95 49/49 52/52 96/96 
f 97/97 98/98 99/99 100/100 
f 98/98 101/101 102/102 99/99 
f 101/101 103/103 104/104 102/102 
f 103/103 105/105 106/106 104/104 
f 105/105 107/107 108/108 106/106 
f 107/107 109/109 110/110 108/108 
f 109/109 111/111 112/112 110/110 
f 111/111 113/113 114/114 112/112 
f 113/113 115/115 116/116 114/114 
f 115/115 117/117 118/118 116/116 
f 117/117 119/119 120/120 118/118 
f 119/119 121/121 122/122 120/120 
f 121/121 123/123 124/124 122/122 
f 123/123 125/125 126/126 124/124 
f 125/125 127/127 128/128 126/126 
f 127/127 129/129 130/130 128/128 
f 129/129 131/131 132/132 130/130 
f 131/131 133/133 134/134 132/132 
f 133/133 135/135 136/136 134/134 
f 135/135 137/137 138/138 136/136 
f 137/137 139/139 140/140 138/138 
f 139/139 141/141 142/142 140/140 
f 141/141 143/143 144/144 142/142 
f 143/143 97/97 100/100 144/144 
f 145/145 146/146 147/147 148/148 
f 149/149 150/150 146/146 145/145 
f 151/151 152/152 150/150 149/149 
f 153/153 154/154 152/152 151/151 
f 155/155 156/156 154/154 153/153 
f 157/157 158/158 156/156 155/155 
f 159/159 160/160 158/158 157/157 
f 161/161 162/162 160/160 159/159 
f 163/163 164/164 162/162 161/161 
f 165/165 166/166 164/164 163/163 
f 167/167 168/168 166/166 165/165 
f 169/169 170/170 168/168 167/167 
f 171/171 172/172 170/170 169/169 
f 173/173 174/174 172/172 171/171 
f 175/175 176/176 174/174 173/173 
f 177/177 178/178 176/176 175/175 
f 179/179 180/180 178/178 177/177 
f 181/181 182/182 180/180 179/179 
f 183/183 184/184 182/182 181/181 
f 185/185 186/186 184/184 183/183 
f 187/187 188/188 186/186 185/185 
f 189/189 190/190 188/188 187/187 
f 191/191 192/192 190/190 189/189 
f 148/148 147/147 192/192 191/191 
f 193/193 145/145 148/148 194/194 
f 195/195 149/149 145/145 193/193 
f 196/196 151/151 149/149 195/195 
f 197/197 153/153 151/151 196/196 
f 198/198 155/155 153/153 197/197 
f 199/199 157/157 155/155 198/198 
f 200/200 159/159 157/157 199/199 
f 201/201 161/161 159/159 200/200 
f 202/202 163/163 161/161 201/201 
f 203/203 165/165 163/163 202/202 
f 204/204 167/167 165/165 203/203 
f 205/205 169/169 167/167 204/204 
f 206/206 171/171 169/169 205/205 
f 207/207 173/173 171/171 206/206 
f 208/208 175/175 173/173 207/207 
f 209/209 177/177 175/175 208/208 
f 210/210 179/179 177/177 209/209 
f 211/211 181/181 179/179 210/210 
f 212/212 183/183 181/181 211/211 
f 213/213 185/185 183/183 212/212 
f 214/214 187/187 185/185 213/213 
f 215/215 189/189 187/187 214/214 
f 216/216 191/191 189/189 215/215 
f 194/194 148/148 191/191 216/216 
f 217/217 193/193 194/194 218/218 
f 219/219 195/195 193/193 217/217 
f 220/220 196/196 195/195 219/219 
f 221/221 197/197 196/196 220/220 
f 222/222 198/198 197/197 221/221 
f 223/223 199/199 198/198 222/222 
f 224/224 200/200 199/199 223/223 
f 225/225 201/201 200/200 224/224 
f 226/226 202/202 201/201 225/225 
f 227/227 203/203 202/202 226/226 
f 228/228 204/204 203/203 227/227 
f 229/229 205/205 204/204 228/228 
f 230/230 206/206 205/205 229/229 
f 231/231 207/207 206/206 230/230 
f 232/232 208/208 207/207 231/231 
f 233/233 209/209 208/208 232/232 
f 234/234 210/210 209/209 233/233 
f 235/235 211/211 210/210 234/234 
f 236/236 212/212 211/211 235/235 
f 237/237 213/213 212/212 236/236 
f 238/238 214/214 213/213 237/237 
f 239/239 215/215 214/214 238/238 
f 240/240 216/216 215/215 239/239 
f 218/218 194/194 216/216 240/240 
f 241/241 217/242 218/243 242/244 
f 243/245 219/246 217/242 241/241 
f 244/247 220/248 219/246 243/245 
f 245/249 221/250 220/248 244/247 
f 246/251 222/252 221/250 245/249 
f 247/253 223/254 222/252 246/251 
f 248/255 224/256 223/254 247/253 
f 249/257 225/258 224/256 248/255 
f 250/259 226/260 225/258 249/257 
f 251/261 227/262 226/260 250/259 
f 252/263 228/264 227/262 251/261 
f 253/265 229/266 228/264 252/263 
f 254/267 230/268 229/266 253/265 
f 255/269 231/270 230/268 254/267 
f 256/271 232/272 231/270 255/269 
f 257/273 233/274 232/272 256/271 
f 258/275 234/276 233/274 257/273 
f 259/277 235/278 234/276 258/275 
f 260/279 236/280 235/278 259/277 
f 261/281 237/282 236/280 260/279 
f 262/283 238/284 237/282 261/281 
f 263/285 239/286 238/284 262/283 
f 264/287 240/288 239/286 263/285 
f 242/244 218/243 240/288 264/287 
f 265/289 241/241 242/244 266/290 
f 267/291 243/245 241/241 265/289 
f 268/292 244/247 243/245 267/291 
f 269/293 245/249 244/247 268/292 
f 270/294 246/251 245/249 269/293 
f 271/295 247/253 246/251 270/294 
f 272/296 248/255 247/253 271/295 
f 273/297 249/257 248/255 272/296 
f 274/298 250/259 249/257 273/297 
f 275/299 251/261 250/259 274/298 
f 276/300 252/263 251/261 275/299 
f 277/301 253/265 252/263 276/300 
f 278/302 254/267 253/265 277/301 
f 279/303 255/269 254/267 278/302 
f 280/304 256/271 255/269 279/303 
f 281/305 257/273 256/271 280/304 
f 282/306 258/275 257/273 281/305 
f 283/307 259/277 258/275 282/306 
f 284/308 260/279 259/277 283/307 
f 285/309 261/281 260/279 284/308 
f 286/310 262/283 261/281 285/309 
f 287/311 263/285 262/283 286/310 
f 288/312 264/287 263/285 287/311 
f 266/290 242/244 264/287 288/312 
f 289/313 265/289 266/290 290/314 
f 291/315 267/291 265/289 289/313 
f 292/316 268/292 267/291 291/315 
f 293/317 269/293 268/292 292/316 
f 294/318 270/294 269/293 293/317 
f 295/319 271/295 270/294 294/318 
f 296/320 272/296 271/295 295/319 
f 297/321 273/297 272/296 296/320 
f 298/322 274/298 273/297 297/321 
f 299/323 275/299 274/298 298/322 
f 300/324 276/300 275/299 299/323 
f 301/325 277/301 276/300 300/324 
f 302/326 278/302 277/301 301/325 
f 303/327 279/303 278/302 302/326 
f 304/328 280/304 279/303 303/327 
f 305/329 281/305 280/304 304/328 
f 306/330 282/306 281/305 305/329 
f 307/331 283/307 282/306 306/330 
f 308/332 284/308 283/307 307/331 
f 309/333 285/309 284/308 308/332 
f 310/334 286/310 285/309 309/333 
f 311/335 287/311 286/310 310/334 
f 312/336 288/312 287/311 311/335 
f 290/314 266/290 288/312 312/336 
f 313/337 289/313 290/314 314/338 
f 315/339 291/315 289/313 313/337 
f 316/340 292/316 291/315 315/339 
f 317/341 293/317 292/316 316/340 
f 318/342 294/318 293/317 317/341 
f 319/343 295/319 294/318 318/342 
f 320/344 296/320 295/319 319/343 
f 321/345 297/321 296/320 320/344 
f 322/346 298/322 297/321 321/345 
f 323/347 299/323 298/322 322/346 
f 324/348 300/324 299/323 323/347 
f 325/349 301/325 300/324 324/348 
f 326/350 302/326 301/325 325/349 
f 327/351 303/327 302/326 326/350 
f 328/352 304/328 303/327 327/351 
f 329/353 305/329 304/328 328/352 
f 330/354 306/330 305/329 329/353 
f 331/355 307/331 306/330 330/354 
f 332/356 308/332 307/331 331/355 
f 333/357 309/333 308/332 332/356 
f 334/358 310/334 309/333 333/357 
f 335/359 311/335 310/334 334/358 
f 336/360 312/336 311/335 335/359 
f 314/338 290/314 312/336 336/360 
f 337/361 313/337 314/338 338/362 
f 339/363 315/339 313/337 337/361 
f 340/364 316/340 315/339 339/363 
f 341/365 317/341 316/340 340/364 
f 342/366 318/342 317/341 341/365 
f 343/367 319/343 318/342 342/366 
f 344/368 320/344 319/343 343/367 
f 345/369 321/345 320/344 344/368 
f 346/370 322/346 321/345 345/369 
f 347/371 323/347 322/346 346/370 
f 348/372 324/348 323/347 347/371 
f 349/373 325/349 324/348 348/372 
f 350/374 326/350 325/349 349/373 
f 351/375 327/351 326/350 350/374 
f 352/376 328/352 327/351 351/375 
f 353/377 329/353 328/352 352/376 
f 354/378 330/354 329/353 353/377 
f 355/379 331/355 330/354 354/378 
f 356/380 332/356 331/355 355/379 
f 357/381 333/357 332/356 356/380 
f 358/382 334/358 333/357 357/381 
f 359/383 335/359 334/358 358/382 
f 360/384 336/360 335/359 359/383 
f 338/362 314/338 336/360 360/384 
f 361/385 337/361 338/362 
f 361/385 339/363 337/361 
f 361/385 340/364 339/363 
f 361/385 341/365 340/364 
f 361/385 342/366 341/365 
f 361/385 343/367 342/366 
f 361/385 344/368 343/367 
f 361/385 345/369 344/368 
f 361/385 346/370 345/369 
f 361/385 347/371 346/370 
f 361/385 348/372 347/371 
f 361/385 349/373 348/372 
f 361/385 350/374 349/373 
f 361/385 351/375 350/374 
f 361/385 352/376 351/375 
f 361/385 353/377 352/376 
f 361/385 354/378 353/377 
f 361/385 355/379 354/378 
f 361/385 356/380 355/379 
f 361/385 357/381 356/380 
f 361/385 358/382 357/381 
f 361/385 359/383 358/382 
f 361/385 360/384 359/383 
f 361/385 338/362 360/384 
f 52/52 51/51 3/3 2/2 
f 4/4 362/386 363/387 1/1 
f 51/51 54/54 5/5 3/3 
f 6/6 364/388 362/386 4/4 
f 54/54 56/56 7/7 5/5 
f 8/8 365/389 364/388 6/6 
f 56/56 58/58 9/9 7/7 
f 10/10 366/390 365/389 8/8 
f 58/58 60/60 11/11 9/9 
f 12/12 367/391 366/390 10/10 
f 60/60 62/62 13/13 11/11 
f 14/14 368/392 367/391 12/12 
f 62/62 64/64 15/15 13/13 
f 16/16 369/393 368/392 14/14 
f 64/64 66/66 17/17 15/15 
f 18/18 370/394 369/393 16/16 
f 66/66 68/68 19/19 17/17 
f 20/20 371/395 370/394 18/18 
f 68/68 70/70 21/21 19/19 
f 22/22 372/396 371/395 20/20 
f 70/70 72/72 23/23 21/21 
f 24/24 373/397 372/396 22/22 
f 72/72 74/74 25/25 23/23 
f 26/26 374/398 373/397 24/24 
f 74/74 76/76 27/27 25/25 
f 28/28 375/399 374/398 26/26 
f 76/76 78/78 29/29 27/27 
f 30/30 376/400 375/399 28/28 
f 78/78 80/80 31/31 29/29 
f 32/32 377/401 376/400 30/30 
f 80/80 82/82 33/33 31/31 
f 34/34 378/402 377/401 32/32 
f 82/82 84/84 35/35 33/33 
f 36/36 379/403 378/402 34/34 
f 84/84 86/86 37/37 35/35 
f 38/38 380/404 379/403 36/36 
f 86/86 88/88 39/39 37/37 
f 40/40 381/405 380/404 38/38 
f 88/88 90/90 41/41 39/39 
f 42/42 382/406 381/405 40/40 
f 90/90 92/92 43/43 41/41 
f 44/44 383/407 382/406 42/42 
f 92/92 94/94 45/45 43/43 
f 46/46 384/408 383/407 44/44 
f 94/94 96/96 47/47 45/45 
f 48/48 385/409 384/408 46/46 
f 96/96 52/52 2/2 47/47 
f 48/48 1/1 363/387 385/409 
f 362/386 386/410 387/411 363/387 
f 364/388 388/412 386/410 362/386 
f 365/389 389/413 388/412 364/388 
f 366/390 390/414 389/413 365/389 
f 367/391 391/415 390/414 366/390 
f 368/392 392/416 391/415 367/391 
f 369/393 393/417 392/416 368/392 
f 370/394 394/418 393/417 369/393 
f 371/395 395/419 394/418 370/394 
f 372/396 396/420 395/419 371/395 
f 373/397 397/421 396/420 372/396 
f 374/398 398/422 397/421 373/397 
f 375/399 399/423 398/422 374/398 
f 376/400 400/424 399/423 375/399 
f 377/401 401/425 400/424 376/400 
f 378/402 402/426 401/425 377/401 
f 379/403 403/427 402/426 378/402 
f 380/404 404/428 403/427 379/403 
f 381/405 405/429 404/428 380/404 
f 382/406 406/430 405/429 381/405 
f 383/407 407/431 406/430 382/406 
f 384/408 408/432 407/431 383/407 
f 385/409 409/433 408/432 384/408 
f 385/409 363/387 387/411 409/433 
f 410/434 411/435 50/50 49/49 
f 411/435 412/436 53/53 50/50 
f 412/436 413/437 55/55 53/53 
f 413/437 414/438 57/57 55/55 
f 414/438 415/439 59/59 57/57 
f 415/439 416/440 61/61 59/59 
f 416/440 417/441 63/63 61/61 
f 417/441 418/442 65/65 63/63 
f 418/442 419/443 67/67 65/65 
f 419/443 420/444 69/69 67/67 
f 420/444 421/445 71/71 69/69 
f 421/445 422/446 73/73 71/71 
f 422/446 423/447 75/75 73/73 
f 423/447 424/448 77/77 75/75 
f 424/448 425/449 79/79 77/77 
f 425/449 426/450 81/81 79/79 
f 426/450 427/451 83/83 81/81 
f 427/451 428/452 85/85 83/83 
f 428/452 429/453 87/87 85/85 
f 429/453 430/454 89/89 87/87 
f 430/454 431/455 91/91 89/89 
f 431/455 432/456 93/93 91/91 
f 432/456 433/457 95/95 93/93 
f 433/457 410/434 49/49 95/95 
f 386/410 434/458 387/411 
f 388/412 434/458 386/410 
f 389/413 434/458 388/412 
f 390/414 434/458 389/413 
f 391/415 434/458 390/414 
f 392/416 434/458 391/415 
f 393/417 434/458 392/416 
f 394/418 434/458 393/417 
f 395/419 434/458 394/418 
f 396/420 434/458 395/419 
f 397/421 434/458 396/420 
f 398/422 434/458 397/421 
f 399/423 434/458 398/422 
f 400/424 434/458 399/423 
f 401/425 434/458 400/424 
f 402/426 434/458 401/425 
f 403/427 434/458 402/426 
f 404/428 434/458 403/427 
f 405/429 434/458 404/428 
f 406/430 434/458 405/429 
f 407/431 434/458 406/430 
f 408/432 434/458 407/431 
f 409/433 434/458 408/432 
f 387/411 434/458 409/433 
f 99/99 411/435 410/434 100/100 
f 102/102 412/436 411/435 99/99 
f 104/104 413/437 412/436 102/102 
f 106/106 414/438 413/437 104/104 
f 108/108 415/439 414/438 106/106 
f 110/110 416/440 415/439 108/108 
f 112/112 417/441 416/440 110/110 
f 114/114 418/442 417/441 112/112 
f 116/116 419/443 418/442 114/114 
f 118/118 420/444 419/443 116/116 
f 120/120 421/445 420/444 118/118 
f 122/122 422/446 421/445 120/120 
f 124/124 423/447 422/446 122/122 
f 126/126 424/448 423/447 124/124 
f 128/128 425/449 424/448 126/126 
f 130/130 426/450 425/449 128/128 
f 132/132 427/451 426/450 130/130 
f 134/134 428/452 427/451 132/132 
f 136/136 429/453 428/452 134/134 
f 138/138 430/454 429/453 136/136 
f 140/140 431/455 430/454 138/138 
f 142/142 432/456 431/455 140/140 
f 144/144 433/457 432/456 142/142 
f 100/100 410/434 433/457 144/144 
f 147/147 146/146 98/98 97/97 
f 146/146 150/150 101/101 98/98 
f 150/150 152/152 103/103 101/101 
f 152/152 154/154 105/105 103/103 
f 154/154 156/156 107/107 105/105 
f 156/156 158/158 109/109 107/107 
f 158/158 160/160 111/111 109/109 
f 160/160 162/162 113/113 111/111 
f 162/162 164/164 115/115 113/113 
f 164/164 166/166 117/117 115/115 
f 166/166 168/168 119/119 117/117 
f 168/168 170/170 121/121 119/119 
f 170/170 172/172 123/123 121/121 
f 172/172 174/174 125/125 123/123 
f 174/174 176/176 127/127 125/125 
f 176/176 178/178 129/129 127/127 
f 178/178 180/180 131/131 129/129 
f 180/180 182/182 133/133 131/131 
f 182/182 184/184 135/135 133/133 
f 184/184 186/186 137/137 135/135 
f 186/186 188/188 139/139 137/137 
f 188/188 190/190 141/141 139/139 
f 190/190 192/192 143/143 141/141 
f 192/192 147/147 97/97 143/143 
f 435/459 436/460 437/461 438/462 
f 439/463 438/462 437/461 440/464 
f 436/460 441/465 442/466 437/461 
f 440/464 437/461 442/466 443/467 
f 441/465 444/468 445/469 442/466 
f 443/467 442/466 445/469 446/470 
f 444/468 447/471 448/472 445/469 
f 446/470 445/469 448/472 449/473 
f 447/471 450/474 451/475 448/472 
f 449/473 448/472 451/475 452/476 
f 450/474 453/477 454/478 451/475 
f 452/476 451/475 454/478 455/479 
f 453/477 456/480 457/481 454/478 
f 455/479 454/478 457/481 458/482 
f 456/480 459/483 460/484 457/481 
f 458/482 457/481 460/484 461/485 
f 459/483 462/486 463/487 460/484 
f 461/485 460/484 463/487 464/488 
f 462/486 465/489 466/490 463/487 
f 464/488 463/487 466/490 467/491 
f 465/489 468/492 469/493 466/490 
f 467/491 466/490 469/493 470/494 
f 468/492 471/495 472/496 469/493 
f 470/494 469/493 472/496 473/497 
f 471/495 474/498 475/499 472/496 
f 473/497 472/496 475/499 476/500 
f 474/498 477/501 478/502 475/499 
f 476/500 475/499 478/502 479/503 
f 477/501 480/504 481/505 478/502 
f 479/503 478/502 481/505 482/506 
f 480/504 483/507 484/508 481/505 
f 482/506 481/505 484/508 485/509 
f 483/507 486/510 487/511 484/508 
f 485/509 484/508 487/511 488/512 
f 486/510 489/513 490/514 487/511 
f 488/512 487/511 490/514 491/515 
f 489/513 492/516 493/517 490/514 
f 491/515 490/514 493/517 494/518 
f 492/516 495/519 496/520 493/517 
f 494/518 493/517 496/520 497/521 
f 495/519 498/522 499/523 496/520 
f 497/521 496/520 499/523 500/524 
f 498/522 501/525 502/526 499/523 
f 500/524 499/523 502/526 503/527 
f 501/525 504/528 505/529 502/526 
f 503/527 502/526 505/529 506/530 
f 504/528 435/459 438/462 505/529 
f 506/530 505/529 438/462 439/463 
f 436/460 435/459 507/531 508/532 
f 509/533 508/532 507/531 510/534 
f 441/465 436/460 508/532 511/535 
f 512/536 511/535 508/532 509/533 
f 435/459 504/528 513/537 507/531 
f 510/534 507/531 513/537 514/538 
f 504/528 501/525 515/539 513/537 
f 514/538 513/537 515/539 516/540 
f 501/525 498/522 517/541 515/539 
f 516/540 515/539 517/541 518/542 
f 498/522 495/519 519/543 517/541 
f 518/542 517/541 519/543 520/544 
f 495/519 492/516 521/545 519/543 
f 520/544 519/543 521/545 522/546 
f 492/516 489/513 523/547 521/545 
f 522/546 521/545 523/547 524/548 
f 489/513 486/510 525/549 523/547 
f 524/548 523/547 525/549 526/550 
f 486/510 483/507 527/551 525/549 
f 526/550 525/549 527/551 528/552 
f 483/507 480/504 529/553 527/551 
f 528/552 527/551 529/553 530/554 
f 480/504 477/501 531/555 529/553 
f 530/554 529/553 531/555 532/556 
f 477/501 474/498 533/557 531/555 
f 532/556 531/555 533/557 534/558 
f 474/498 471/495 535/559 533/557 
f 534/558 533/557 535/559 536/560 
f 471/495 468/492 537/561 535/559 
f 536/560 535/559 537/561 538/562 
f 468/492 465/489 539/563 537/561 
f 538/562 537/561 539/563 540/564 
f 465/489 462/486 541/565 539/563 
f 540/564 539/563 541/565 542/566 
f 462/486 459/483 543/567 541/565 
f 542/566 541/565 543/567 544/568 
f 459/483 456/480 545/569 543/567 
f 544/568 543/567 545/569 546/570 
f 456/480 453/477 547/571 545/569 
f 546/570 545/569 547/571 548/572 
f 453/477 450/474 549/573 547/571 
f 548/572 547/571 549/573 550/574 
f 450/474 447/471 551/575 549/573 
f 550/574 549/573 551/575 552/576 
f 447/471 444/468 553/577 551/575 
f 552/576 551/575 553/577 554/578 
f 444/468 441/465 511/535 553/577 
f 554/578 553/577 511/535 512/536 
f 555/579 556/580 557/581 558/582 
f 556/580 559/583 560/584 557/581 
f 559/583 561/585 562/586 560/584 
f 561/585 563/587 564/588 562/586 
f 563/587 565/589 566/590 564/588 
f 565/589 567/591 568/592 566/590 
f 567/591 569/593 570/594 568/592 
f 569/593 571/595 572/596 570/594 
f 571/595 573/597 574/598 572/596 
f 573/597 575/599 576/600 574/598 
f 575/599 577/601 578/602 576/600 
f 577/601 579/603 580/604 578/602 
f 579/603 581/605 582/606 580/604 
f 581/605 583/607 584/608 582/606 
f 583/607 585/609 586/610 584/608 
f 585/609 587/611 588/612 586/610 
f 587/611 589/613 590/614 588/612 
f 589/613 591/615 592/616 590/614 
f 591/615 593/617 594/618 592/616 
f 593/617 595/619 596/620 594/618 
f 595/619 597/621 598/622 596/620 
f 597/621 599/623 600/624 598/622 
f 599/623 601/625 602/626 600/624 
f 601/625 555/579 558/582 602/626 
f 558/582 557/581 603/627 604/628 
f 604/628 603/627 605/629 606/630 
f 560/584 607/631 603/627 557/581 
f 603/627 607/631 608/632 605/629 
f 562/586 609/633 607/631 560/584 
f 607/631 609/633 610/634 608/632 
f 564/588 611/635 609/633 562/586 
f 609/633 611/635 612/636 610/634 
f 566/590 613/637 611/635 564/588 
f 611/635 613/637 614/638 612/636 
f 568/592 615/639 613/637 566/590 
f 613/637 615/639 616/640 614/638 
f 570/594 617/641 615/639 568/592 
f 615/639 617/641 618/642 616/640 
f 572/596 619/643 617/641 570/594 
f 617/641 619/643 620/644 618/642 
f 574/598 621/645 619/643 572/596 
f 619/643 621/645 622/646 620/644 
f 576/600 623/647 621/645 574/598 
f 621/645 623/647 624/648 622/646 
f 578/602 625/649 623/647 576/600 
f 623/647 625/649 626/650 624/648 
f 580/604 627/651 625/649 578/602 
f 625/649 627/651 628/652 626/650 
f 582/606 629/653 627/651 580/604 
f 627/651 629/653 630/654 628/652 
f 584/608 631/655 629/653 582/606 
f 629/653 631/655 632/656 630/654 
f 586/610 633/657 631/655 584/608 
f 631/655 633/657 634/658 632/656 
f 588/612 635/659 633/657 586/610 
f 633/657 635/659 636/660 634/658 
f 590/614 637/661 635/659 588/612 
f 635/659 637/661 638/662 636/660 
f 592/616 639/663 637/661 590/614 
f 637/661 639/663 640/664 638/662 
f 594/618 641/665 639/663 592/616 
f 639/663 641/665 642/666 640/664 
f 596/620 643/667 641/665 594/618 
f 641/665 643/667 644/668 642/666 
f 598/622 645/669 643/667 596/620 
f 643/667 645/669 646/670 644/668 
f 600/624 647/671 645/669 598/622 
f 645/669 647/671 648/672 646/670 
f 602/626 649/673 647/671 600/624 
f 647/671 649/673 650/674 648/672 
f 558/582 604/628 649/673 602/626 
f 649/673 604/628 606/630 650/674 
f 439/463 440/464 556/580 555/579 
f 440/464 443/467 559/583 556/580 
f 443/467 446/470 561/585 559/583 
f 446/470 449/473 563/587 561/585 
f 449/473 452/476 565/589 563/587 
f 452/476 455/479 567/591 565/589 
f 455/479 458/482 569/593 567/591 
f 458/482 461/485 571/595 569/593 
f 461/485 464/488 573/597 571/595 
f 464/488 467/491 575/599 573/597 
f 467/491 470/494 577/601 575/599 
f 470/494 473/497 579/603 577/601 
f 473/497 476/500 581/605 579/603 
f 476/500 479/503 583/607 581/605 
f 479/503 482/506 585/609 583/607 
f 482/506 485/509 587/611 585/609 
f 485/509 488/512 589/613 587/611 
f 488/512 491/515 591/615 589/613 
f 491/515 494/518 593/617 591/615 
f 494/518 497/521 595/619 593/617 
f 497/521 500/524 597/621 595/619 
f 500/524 503/527 599/623 597/621 
f 503/527 506/530 601/625 599/623 
f 506/530 439/463 555/579 601/625 
f 605/629 651/675 606/630 
f 608/632 651/675 605/629 
f 610/634 651/675 608/632 
f 612/636 651/675 610/634 
f 614/638 651/675 612/636 
f 616/640 651/675 614/638 
f 618/642 651/675 616/640 
f 620/644 651/675 618/642 
f 622/646 651/675 620/644 
f 624/648 651/675 622/646 
f 626/650 651/675 624/648 
f 628/652 651/675 626/650 
f 630/654 651/675 628/652 
f 632/656 651/675 630/654 
f 634/658 651/675 632/656 
f 636/660 651/675 634/658 
f 638/662 651/675 636/660 
f 640/664 651/675 638/662 
f 642/666 651/675 640/664 
f 644/668 651/675 642/666 
f 646/670 651/675 644/668 
f 648/672 651/675 646/670 
f 650/674 651/675 648/672 
f 606/630 651/675 650/674 
# 600 polygons - 72 triangles

