<svg width="20" height="21" viewBox="0 0 20 21" fill="none" xmlns="http://www.w3.org/2000/svg">
<path fill-rule="evenodd" clip-rule="evenodd" d="M8.52042 0.290325C9.29462 -0.0967754 10.2059 -0.0967747 10.9801 0.290325L18.2968 3.94868C19.5867 4.5936 19.5866 6.43426 18.2968 7.07918L10.9801 10.7375C10.2059 11.1246 9.29462 11.1246 8.52042 10.7375L1.2037 7.07918C-0.0861342 6.43426 -0.0861268 4.5936 1.20371 3.94868L8.52042 0.290325ZM0.0648285 15.2093C0.233057 14.8307 0.676278 14.6603 1.05479 14.8285L9.24251 18.4675C9.56572 18.6111 9.93465 18.6111 10.2579 18.4675L18.4456 14.8285C18.8241 14.6603 19.2673 14.8307 19.4355 15.2093C19.6038 15.5878 19.4333 16.031 19.0548 16.1992L10.8671 19.8382C10.156 20.1542 9.34436 20.1542 8.63331 19.8382L0.445583 16.1992C0.0670702 16.031 -0.1034 15.5878 0.0648285 15.2093ZM1.05479 10.3285C0.676278 10.1603 0.233057 10.3307 0.0648285 10.7093C-0.1034 11.0878 0.0670702 11.531 0.445583 11.6992L8.63331 15.3382C9.34436 15.6542 10.156 15.6542 10.8671 15.3382L19.0548 11.6992C19.4333 11.531 19.6038 11.0878 19.4355 10.7093C19.2673 10.3307 18.8241 10.1603 18.4456 10.3285L10.2579 13.9675C9.93465 14.1111 9.56572 14.1111 9.24251 13.9675L1.05479 10.3285Z" fill="#646094"/>
</svg>
